<svg xmlns="http://www.w3.org/2000/svg" width="40" height="40" fill="none"><path fill="#282A2E" fill-rule="evenodd" d="M30.909 27.532v3.896h2.597v-3.896H40V39.48H17.662V27.534H30.91ZM40 0H17.662v14.47l3.885-2.243.011-.02 16.618 9.595-1.299 2.25-15.308-8.839-3.907 2.256v8.765H30.91v-5.029l2.597 1.5v3.529H40V0Zm-6.494 18.476v-5.75H30.91v4.25l2.597 1.5ZM15.844 11.169H0v22.597h15.844V18.52l-9.61 5.549-1.299-2.25 10.91-6.298v-4.351ZM9.61 31.428v-8.71l2.598-1.5v10.21H9.61Z" clip-rule="evenodd"/></svg>