<svg width="19" height="28" viewBox="0 0 19 28" fill="none" xmlns="http://www.w3.org/2000/svg">
    <path d="M9.33333 13.3333C8.44928 13.3333 7.60143 12.9821 6.97631 12.357C6.35119 11.7319 6 10.884 6 9.99996C6 9.1159 6.35119 8.26806 6.97631 7.64294C7.60143 7.01782 8.44928 6.66663 9.33333 6.66663C10.2174 6.66663 11.0652 7.01782 11.6904 7.64294C12.3155 8.26806 12.6667 9.1159 12.6667 9.99996C12.6667 10.4377 12.5804 10.8712 12.4129 11.2756C12.2454 11.68 11.9999 12.0475 11.6904 12.357C11.3808 12.6665 11.0134 12.912 10.6089 13.0796C10.2045 13.2471 9.77107 13.3333 9.33333 13.3333ZM9.33333 0.666626C6.85798 0.666626 4.48401 1.64996 2.73367 3.4003C0.98333 5.15064 0 7.52461 0 9.99996C0 17 9.33333 27.3333 9.33333 27.3333C9.33333 27.3333 18.6667 17 18.6667 9.99996C18.6667 7.52461 17.6833 5.15064 15.933 3.4003C14.1827 1.64996 11.8087 0.666626 9.33333 0.666626Z" fill="#FD5B33"/>
</svg>
