<svg width="18" height="24" viewBox="0 0 18 24" fill="none" xmlns="http://www.w3.org/2000/svg">
    <path d="M9.00004 11.4166C8.22649 11.4166 7.48463 11.1094 6.93765 10.5624C6.39067 10.0154 6.08337 9.27353 6.08337 8.49998C6.08337 7.72643 6.39067 6.98457 6.93765 6.43759C7.48463 5.8906 8.22649 5.58331 9.00004 5.58331C9.77359 5.58331 10.5155 5.8906 11.0624 6.43759C11.6094 6.98457 11.9167 7.72643 11.9167 8.49998C11.9167 8.883 11.8413 9.26227 11.6947 9.61614C11.5481 9.97001 11.3333 10.2915 11.0624 10.5624C10.7916 10.8332 10.4701 11.0481 10.1162 11.1946C9.76234 11.3412 9.38306 11.4166 9.00004 11.4166ZM9.00004 0.333313C6.83411 0.333313 4.75688 1.19373 3.22534 2.72527C1.69379 4.25682 0.833374 6.33405 0.833374 8.49998C0.833374 14.625 9.00004 23.6666 9.00004 23.6666C9.00004 23.6666 17.1667 14.625 17.1667 8.49998C17.1667 6.33405 16.3063 4.25682 14.7747 2.72527C13.2432 1.19373 11.166 0.333313 9.00004 0.333313Z" fill="#77797D"/>
</svg>
