<svg xmlns="http://www.w3.org/2000/svg" width="81" height="86" fill="none"><path fill="#FD5B33" d="M13.559 3v12.535h6.635V3h-6.635Zm38.247 0v12.535h6.625V3h-6.625ZM0 9.025v17.548h72V9.025h-8.825v11.21H47.062V9.025H24.928v11.21H8.825V9.025H0ZM0 31.18V83h72V31.18H0Zm28.283 11.974c3.665.035 7.134 1.782 8.513 5.033.648 1.942.993 4.012.186 5.82-1.01 2.086-3.06 3.171-5.07 3.871 3.773.977 6.256 3.33 6.278 7.154a8.582 8.582 0 0 1-3.165 6.464c-1.987 1.558-4.388 2.428-6.742 2.444-6.637 0-9.957-2.969-9.957-8.908h5.86c.124 2.5 1.315 4.402 3.768 4.436 3.117-.21 4.352-2.243 4.377-4.846-.001-1.571-.58-3.182-1.957-3.788-1.777-.733-3.761-.646-5.493-.647v-4.522c2.83.059 6.719-.437 6.748-3.785-.11-2.463-1.126-4.22-3.536-4.25-2.566.153-3.974 1.6-4.001 3.886h-5.766c.125-5.764 4.898-8.337 9.957-8.362Zm20.224.558h5.163v29.68h-5.586V49.525c-2.14 1.816-4.509 3.108-7.114 3.878v-5.077c3.04-1.17 5.552-2.706 7.537-4.614Z"/></svg>