<svg xmlns="http://www.w3.org/2000/svg" width="81" height="86" fill="none"><path fill="#FD5B33" d="m78.62 33.167-1.032-1.026a7.488 7.488 0 0 0-1.345-8.462 7.198 7.198 0 0 0-2.554-1.629 7.235 7.235 0 0 0-3.003-.437 8.256 8.256 0 0 0-2.784.658V5H1v76h66.902V42.572l7.383-7.338.63.624a.88.88 0 0 1 0 1.247l-5.621 5.591a1.895 1.895 0 0 0-.001 2.687 1.918 1.918 0 0 0 2.703.002l5.625-5.591A4.674 4.674 0 0 0 80 36.48a4.674 4.674 0 0 0-1.38-3.314ZM15.337 19.725h38.235v3.8H15.336v-3.8Zm0 9.5h38.235v3.8H15.336v-3.8Zm0 9.5h25.088v3.8H15.336v-3.8Zm35.341 32.528H32.033c-2.155 0-4.172-.204-5.242-1.957-1.097-1.793-.007-3.876.788-5.4.141-.27-.172-.602-.53-.233-1.052 1.073-2.724 3.006-4.07 4.56-1.42 1.643-1.985 2.287-2.286 2.557a2.21 2.21 0 0 1-2.643.532 2.068 2.068 0 0 1-.875-.988 2.052 2.052 0 0 1-.097-1.313c.1-.594 1.806-7.201 3.352-13.14-2.055 3.626-8.577 14.487-8.883 14.997a1.683 1.683 0 0 1-2.295.576 1.655 1.655 0 0 1-.58-2.281c.084-.135 8.255-13.746 9.285-15.722.336-.79.96-1.424 1.749-1.774a3.424 3.424 0 0 1 2.495-.11 3.134 3.134 0 0 1 1.666 1.578c.335.717.384 1.533.138 2.284-.86 3.296-1.737 6.678-2.413 9.31 1.091-1.254 2.234-2.541 3.058-3.385a4.542 4.542 0 0 1 2.468-1.51 4.563 4.563 0 0 1 2.884.283 2.818 2.818 0 0 1 1.279 1.315c.267.568.335 1.209.193 1.82-.228.756-.54 1.486-.927 2.175-.638 1.318-.335 2.499 1.486 2.499h18.644c.444 0 .87.175 1.183.487a1.657 1.657 0 0 1 0 2.35 1.68 1.68 0 0 1-1.183.49Zm-4.97-11.994-6.222 1.632a.524.524 0 0 1-.516-.138.51.51 0 0 1-.14-.513l1.586-6.172L56.16 38.416l5.256 5.225-15.71 15.618Zm27.397-27.234-8.984 8.93-5.257-5.225 8.984-8.93a4.669 4.669 0 0 1 3.035-1.392l.215-.007a3.417 3.417 0 0 1 2.442.967 4.021 4.021 0 0 1-.435 5.657Z"/></svg>