<svg xmlns="http://www.w3.org/2000/svg" width="180" height="22" fill="none"><path fill="#fff" fill-rule="evenodd" d="M17.224 15.342v2.171h1.448v-2.171h3.617V22H9.843v-6.658h7.382ZM22.29 0H9.841v8.064l2.165-1.25.007-.011 9.26 5.346-.724 1.253-8.53-4.924-2.178 1.257v4.883h7.382v-2.801l1.448.835v1.966h3.617V0Zm-3.618 10.296V7.092h-1.448V9.46l1.448.836ZM8.829 6.224H0v12.592h8.829V10.32L3.474 13.41l-.724-1.253 6.079-3.51V6.224ZM5.355 17.513v-4.854l1.448-.836v5.69H5.355Z" clip-rule="evenodd"/><path fill="#fff" d="M40.672 5.578v9.406h1.524v5.344H39.86V17h-7.157v3.328h-2.335v-5.344h.882c.297-.593.584-1.221.86-1.882.276-.662.534-1.373.773-2.133.24-.76.456-1.586.649-2.477.192-.89.354-1.862.484-2.914h6.656Zm-2.414 2.016h-2.32c-.078.552-.185 1.14-.32 1.765a29.512 29.512 0 0 1-.485 1.914 27.271 27.271 0 0 1-.617 1.915c-.224.63-.464 1.229-.719 1.796h4.461v-7.39Zm13.053 5.023c0 .73-.099 1.375-.297 1.938a3.817 3.817 0 0 1-.851 1.43 3.58 3.58 0 0 1-1.344.874c-.52.198-1.11.297-1.766.297-.614 0-1.18-.099-1.695-.297a3.769 3.769 0 0 1-1.336-.875 4.08 4.08 0 0 1-.875-1.43c-.203-.562-.304-1.208-.304-1.937 0-.969.171-1.789.515-2.46a3.538 3.538 0 0 1 1.469-1.532c.635-.349 1.393-.523 2.273-.523.818 0 1.542.174 2.172.523a3.68 3.68 0 0 1 1.492 1.531c.365.672.547 1.492.547 2.461Zm-6.039 0c0 .573.063 1.055.188 1.445.125.391.32.685.586.883.265.198.612.297 1.039.297.422 0 .763-.099 1.023-.297.266-.198.459-.492.578-.883.125-.39.188-.872.188-1.445 0-.578-.063-1.057-.188-1.437-.12-.386-.312-.675-.578-.867-.265-.193-.612-.29-1.039-.29-.63 0-1.088.217-1.375.649-.281.432-.422 1.08-.422 1.945Zm18.616-4.351V17H61.66v-4.29c0-.42.008-.835.024-1.241.015-.406.039-.781.07-1.125h-.047L59.294 17h-1.789l-2.453-6.672h-.063c.042.35.07.724.086 1.125.016.401.024.841.024 1.32V17H52.88V8.266h3.375l2.172 5.921 2.21-5.921h3.25Zm10.045 4.351c0 .73-.099 1.375-.297 1.938a3.818 3.818 0 0 1-.851 1.43c-.37.385-.818.677-1.344.874-.52.198-1.11.297-1.766.297-.614 0-1.18-.099-1.695-.297a3.768 3.768 0 0 1-1.336-.875 4.079 4.079 0 0 1-.875-1.43c-.203-.562-.305-1.208-.305-1.937 0-.969.172-1.789.516-2.46a3.538 3.538 0 0 1 1.469-1.532c.635-.349 1.393-.523 2.273-.523.818 0 1.542.174 2.172.523.635.349 1.133.86 1.492 1.531.365.672.547 1.492.547 2.461Zm-6.039 0c0 .573.063 1.055.188 1.445.125.391.32.685.586.883.265.198.611.297 1.039.297.422 0 .763-.099 1.023-.297.266-.198.458-.492.578-.883.125-.39.188-.872.188-1.445 0-.578-.063-1.057-.188-1.437-.12-.386-.312-.675-.578-.867-.266-.193-.612-.29-1.039-.29-.63 0-1.089.217-1.375.649-.281.432-.422 1.08-.422 1.945Zm11.155 4.54c-.865 0-1.602-.157-2.211-.47-.61-.317-1.073-.807-1.39-1.468-.319-.662-.477-1.508-.477-2.54 0-1.067.18-1.937.539-2.609.364-.677.867-1.174 1.508-1.492.645-.318 1.393-.476 2.242-.476.604 0 1.125.06 1.562.18.443.114.828.252 1.156.413l-.703 1.844a11.096 11.096 0 0 0-1.047-.367 3.29 3.29 0 0 0-.968-.149c-.417 0-.763.1-1.04.297-.275.193-.481.485-.617.875-.135.39-.203.88-.203 1.47 0 .577.073 1.056.22 1.437.145.38.356.664.632.851.276.182.612.274 1.008.274.494 0 .935-.066 1.32-.196.386-.135.76-.323 1.125-.562v2.039c-.364.229-.747.393-1.148.492-.396.104-.899.156-1.508.156Zm11.514-7.102h-2.86V17h-2.382v-6.945h-2.867v-1.79h8.109v1.79Zm6.092-1.953c.984 0 1.779.382 2.383 1.148.61.766.914 1.888.914 3.367 0 .99-.143 1.823-.43 2.5-.286.672-.682 1.18-1.187 1.524-.505.343-1.086.515-1.742.515-.422 0-.784-.052-1.086-.156a2.79 2.79 0 0 1-.774-.414 3.673 3.673 0 0 1-.555-.547h-.124a6.735 6.735 0 0 1 .125 1.281v3.524h-2.383V8.266h1.937l.336 1.132h.11c.156-.234.346-.45.57-.648a2.5 2.5 0 0 1 .805-.469c.317-.12.684-.18 1.101-.18Zm-.766 1.906c-.416 0-.747.086-.992.258-.245.171-.424.43-.539.773-.11.344-.17.779-.18 1.305v.258c0 .562.053 1.039.157 1.43.11.39.289.687.539.89.255.203.604.305 1.047.305.364 0 .664-.102.898-.305.234-.203.409-.5.524-.89.12-.397.18-.878.18-1.446 0-.854-.134-1.498-.4-1.93-.265-.432-.676-.648-1.234-.648Zm13.569 2.61c0 .728-.099 1.374-.297 1.937a3.807 3.807 0 0 1-.851 1.43c-.37.385-.818.677-1.344.874-.521.198-1.109.297-1.766.297a4.696 4.696 0 0 1-1.695-.297 3.77 3.77 0 0 1-1.336-.875 4.075 4.075 0 0 1-.875-1.43c-.203-.562-.305-1.208-.305-1.937 0-.969.172-1.789.516-2.46a3.537 3.537 0 0 1 1.469-1.532c.635-.349 1.393-.523 2.273-.523.818 0 1.542.174 2.172.523.636.349 1.133.86 1.492 1.531.365.672.547 1.492.547 2.461Zm-6.039 0c0 .572.063 1.054.188 1.444.125.391.32.685.586.883.265.198.612.297 1.039.297.421 0 .763-.099 1.023-.297.266-.198.458-.492.578-.883.125-.39.188-.872.188-1.445 0-.578-.063-1.057-.188-1.437-.12-.386-.312-.675-.578-.867-.266-.193-.612-.29-1.039-.29-.63 0-1.089.217-1.375.649-.281.432-.422 1.08-.422 1.945Zm9.913-4.352v3.453c0 .177-.008.4-.024.672-.01.265-.026.536-.047.812s-.041.524-.062.742a16.48 16.48 0 0 1-.047.446l4.031-6.125h2.867V17h-2.304v-3.484c0-.287.01-.602.031-.946.021-.349.044-.677.07-.984.026-.307.045-.54.055-.695L113.886 17h-2.859V8.266h2.305Zm6.062-3.758a3.463 3.463 0 0 1-.469 1.46c-.255.423-.653.75-1.195.985-.542.234-1.271.352-2.187.352-.943 0-1.678-.112-2.204-.336-.526-.23-.901-.552-1.125-.969-.224-.422-.359-.92-.406-1.492h2.133c.047.588.195.979.445 1.172.25.187.651.28 1.203.28.459 0 .834-.103 1.125-.312.292-.208.467-.588.524-1.14h2.156Zm11.864 12.648a6.29 6.29 0 0 1-2.351-.43 5.684 5.684 0 0 1-1.868-1.226 5.593 5.593 0 0 1-1.226-1.86 6.284 6.284 0 0 1-.43-2.35c0-.855.143-1.639.43-2.352.292-.714.7-1.334 1.226-1.86a5.524 5.524 0 0 1 1.868-1.226 6.19 6.19 0 0 1 2.351-.438c.854 0 1.638.146 2.352.438a5.5 5.5 0 0 1 3.078 3.086c.292.713.437 1.497.437 2.351 0 .849-.145 1.633-.437 2.352a5.5 5.5 0 0 1-3.078 3.086c-.714.286-1.498.43-2.352.43Zm.016-2.203c-1.151 0-2.018-.336-2.602-1.008-.583-.677-.875-1.573-.875-2.687 0-.73.125-1.365.375-1.906.255-.542.636-.961 1.141-1.258.505-.302 1.133-.453 1.883-.453.479 0 .922.054 1.328.164a5.77 5.77 0 0 1 1.179.445l-.718 1.602a3.923 3.923 0 0 0-.797-.329 3.152 3.152 0 0 0-.852-.109c-.411 0-.739.162-.984.484-.24.318-.359.782-.359 1.391 0 .662.112 1.143.335 1.445.23.297.581.446 1.055.446.339 0 .68-.042 1.024-.125a4 4 0 0 0 .992-.407v1.805a4.674 4.674 0 0 1-1 .375 4.652 4.652 0 0 1-1.125.125Zm-.016.93c.651 0 1.248-.112 1.789-.336a4.079 4.079 0 0 0 1.399-.945c.396-.412.7-.896.914-1.454a5.105 5.105 0 0 0 .328-1.859c0-.677-.11-1.294-.328-1.851a4.184 4.184 0 0 0-.914-1.454 4.025 4.025 0 0 0-1.399-.953 4.636 4.636 0 0 0-1.789-.336c-.661 0-1.265.112-1.812.336a4.076 4.076 0 0 0-1.414.953c-.396.407-.704.891-.922 1.454a5.127 5.127 0 0 0-.321 1.851c0 .677.107 1.297.321 1.86.218.557.526 1.041.922 1.453a4.13 4.13 0 0 0 1.414.945 4.74 4.74 0 0 0 1.812.336ZM146.077 17h-7.984v-1.68l2.867-2.898a42.795 42.795 0 0 0 1.39-1.485c.355-.4.61-.765.766-1.093.161-.328.242-.68.242-1.055 0-.453-.127-.792-.383-1.016-.25-.229-.586-.343-1.007-.343-.443 0-.873.101-1.29.304a6.665 6.665 0 0 0-1.304.868l-1.313-1.555c.328-.281.675-.547 1.039-.797.37-.25.797-.45 1.282-.602.489-.156 1.075-.234 1.757-.234.75 0 1.394.135 1.93.406.542.271.958.64 1.25 1.11.292.463.438.99.438 1.578 0 .63-.125 1.206-.375 1.726-.25.521-.615 1.037-1.094 1.547a31.608 31.608 0 0 1-1.719 1.696l-1.469 1.382v.11h4.977V17Zm8.694-5.71c0 .92-.073 1.744-.219 2.468-.141.724-.37 1.338-.688 1.844a3.13 3.13 0 0 1-1.234 1.156c-.51.265-1.13.398-1.859.398-.917 0-1.67-.232-2.258-.695-.589-.469-1.024-1.14-1.305-2.016-.281-.88-.422-1.932-.422-3.156 0-1.234.128-2.289.383-3.164.261-.88.682-1.555 1.266-2.023.583-.47 1.362-.704 2.336-.704.911 0 1.661.235 2.25.704.593.463 1.034 1.135 1.32 2.015.286.875.43 1.932.43 3.172Zm-5.586 0c0 .869.047 1.595.14 2.179.099.578.263 1.013.493 1.304.229.292.546.438.953.438.401 0 .716-.143.945-.43.234-.291.401-.726.5-1.304.099-.584.148-1.313.148-2.188 0-.87-.049-1.596-.148-2.18-.099-.583-.266-1.02-.5-1.312-.229-.297-.544-.445-.945-.445-.407 0-.724.148-.953.445-.23.292-.394.729-.493 1.312-.093.584-.14 1.31-.14 2.18ZM163.589 17h-7.984v-1.68l2.867-2.898a42.97 42.97 0 0 0 1.391-1.485c.354-.4.609-.765.765-1.093a2.35 2.35 0 0 0 .243-1.055c0-.453-.128-.792-.383-1.016-.25-.229-.586-.343-1.008-.343a2.91 2.91 0 0 0-1.289.304 6.64 6.64 0 0 0-1.305.868l-1.312-1.555c.328-.281.674-.547 1.039-.797.37-.25.797-.45 1.281-.602.49-.156 1.076-.234 1.758-.234.75 0 1.393.135 1.93.406.541.271.958.64 1.25 1.11.291.463.437.99.437 1.578 0 .63-.125 1.206-.375 1.726-.25.521-.614 1.037-1.094 1.547a31.923 31.923 0 0 1-1.718 1.696l-1.469 1.382v.11h4.976V17Zm9.014-2.367h-1.375V17h-2.359v-2.367h-4.875v-1.68l5.008-7.375h2.226v7.18h1.375v1.875Zm-3.734-1.875V10.82c0-.182.003-.398.008-.648l.031-.75.031-.664.032-.414h-.063c-.099.213-.203.422-.312.625-.11.198-.237.406-.383.625l-2.094 3.164h2.75Z"/></svg>