<svg xmlns="http://www.w3.org/2000/svg" width="80" height="86" fill="none"><path fill="#FD5B33" fill-rule="evenodd" d="m29.397 32.096 10.512-5.483 10.513 5.483-2.008-11.612 8.506-8.225-11.754-1.694L39.91 0l-5.257 10.565-11.753 1.694 8.505 8.225-2.007 11.612Zm-26.113 4.32 5.312-2.77 5.313 2.77-1.015-5.867 4.298-4.157-5.94-.856-2.656-5.339-2.657 5.339L0 26.392l4.298 4.157-1.014 5.867Zm68.12-2.77-5.313 2.77 1.015-5.867-4.298-4.157 5.94-.856 2.656-5.339 2.657 5.339 5.939.856-4.298 4.157 1.014 5.867-5.312-2.77Zm3.83 37.76c-1.315-1.327-2.96-1.99-4.932-1.99h-23.02l-6.907-2.653.987-2.986 5.92 2.322h9.208c.986 0 2.301-.663 2.96-1.327.657-.663.986-1.658.986-2.653 0-1.658-.987-2.985-2.631-3.648l-24.007-8.956H27.55v29.851L50.57 86l26.309-9.95c0-1.659-.658-3.317-1.645-4.644Zm-54.261-21.89H7.818V86h13.155V49.515Z" clip-rule="evenodd"/></svg>